<?xml version="1.0" encoding="iso-8859-1"?>
<!-- Generator: Adobe Illustrator 19.0.0, SVG Export Plug-In . SVG Version: 6.00 Build 0)  -->
<svg version="1.1" id="Layer_1" xmlns="http://www.w3.org/2000/svg" xmlns:xlink="http://www.w3.org/1999/xlink" x="0px" y="0px"
	 viewBox="0 0 512 512" style="enable-background:new 0 0 512 512;" xml:space="preserve">
<g>
	<g>
		<path d="M217.198,176.773c-1.505-4.637-6.492-7.175-11.123-5.669c-8.932,2.901-18.36,2.904-27.262,0.005
			c-4.63-1.51-9.617,1.024-11.128,5.661c-1.509,4.635,1.025,9.617,5.661,11.126c6.238,2.032,12.656,3.046,19.079,3.046
			c6.424,0,12.853-1.016,19.104-3.047C216.167,186.389,218.706,181.409,217.198,176.773z"/>
	</g>
</g>
<g>
	<g>
		<circle cx="197.149" cy="232.46" r="17.655"/>
	</g>
</g>
<g>
	<g>
		<circle cx="314.85" cy="232.46" r="17.655"/>
	</g>
</g>
<g>
	<g>
		<path d="M500.189,230.202c-0.543-15.181-6.714-29.617-17.375-40.649c-10.667-11.037-24.886-17.69-40.04-18.736
			c-8.523-0.586-16.887,0.541-24.862,3.356c-0.049,0.018-0.094,0.04-0.142,0.059c-0.044,0.017-0.088,0.027-0.132,0.044
			c-4.235,1.654-7.94,3.511-11.331,5.678c-8.519,5.447-18.763,8.327-29.623,8.327c-6.73,0-13.31-1.262-19.549-3.748
			c-28.857-11.517-68.9-40.874-94.422-62.512c-14.094-11.949-41.222-23.419-71.303-16.425c-21.678,5.04-52.1,21.569-73.922,71.687
			c-1.947,4.47,0.099,9.672,4.569,11.618c4.473,1.947,9.673-0.1,11.617-4.569c14.955-34.346,36.303-55.627,61.734-61.54
			c23.7-5.51,44.917,3.394,55.886,12.696c13.203,11.193,30.214,24.399,47.774,36.363c-0.856-0.224-1.709-0.465-2.555-0.74
			c-4.635-1.51-9.617,1.024-11.128,5.661c-1.509,4.635,1.025,9.617,5.661,11.126c6.238,2.031,12.656,3.046,19.079,3.046
			c5.344,0,10.69-0.713,15.936-2.12c8.59,4.891,16.902,9.063,24.535,12.109c8.334,3.319,17.111,5.002,26.088,5.002
			c14.237,0,27.769-3.841,39.132-11.107c2.363-1.511,5.018-2.834,8.094-4.047c5.651-1.976,11.588-2.771,17.648-2.352
			c22.188,1.53,40.19,20.156,40.985,42.403c0.433,12.113-3.95,23.573-12.342,32.27c-8.396,8.702-19.677,13.494-31.765,13.494
			c-4.011,0-7.941-0.54-11.748-1.595c1.844-15.506,2.92-31,2.92-42.543c0-4.868,3.959-8.828,8.828-8.828s8.828,3.959,8.828,8.828
			c0,4.875,3.951,8.828,8.828,8.828c4.876,0,8.828-3.952,8.828-8.828c0-14.603-11.881-26.483-26.483-26.483
			c-14.602,0-26.483,11.88-26.483,26.483c0,12.563-1.368,30.236-3.658,47.273v0.001c-4.932,36.669-13.301,64.578-21.842,72.838
			c-15.072,14.58-45.945,26.333-84.702,32.248c0,0-0.002,0-0.003,0c-9.543,1.456-19.185,2.487-28.657,3.063
			c-4.766,0.29-8.437,4.316-8.287,9.088c0.005,0.142,0.012,0.284,0.022,0.441c-0.044,2.294-0.957,4.443-2.581,6.069
			c-0.001,0.001-0.002,0.002-0.004,0.003c-1.667,1.668-3.884,2.586-6.242,2.586c-2.359,0-4.575-0.918-6.24-2.585
			c-0.001-0.001-0.002-0.002-0.004-0.004c-1.627-1.628-2.54-3.779-2.582-6.075c0.011-0.16,0.019-0.32,0.025-0.481
			c0.141-4.761-3.52-8.776-8.274-9.072c-9.471-0.591-19.115-1.633-28.663-3.096c-0.001,0-0.001,0-0.002,0
			c-38.846-5.955-69.721-17.686-84.713-32.185c-3.052-2.952-9.069-11.561-15.078-36.053c-2.628-10.714-4.968-23.433-6.763-36.783
			c-2.292-17.04-3.659-34.712-3.659-47.277c0-14.603-11.881-26.483-26.483-26.483S47.08,217.857,47.08,232.46
			c0,4.875,3.951,8.828,8.828,8.828c4.876,0,8.828-3.952,8.828-8.828c0-4.868,3.959-8.828,8.828-8.828
			c4.868,0,8.828,3.959,8.828,8.828c0,11.543,1.075,27.037,2.92,42.543c-3.806,1.055-7.737,1.595-11.748,1.595
			c-24.338,0-44.138-19.8-44.138-44.138s19.8-44.138,44.138-44.138c5.958,0,11.743,1.173,17.2,3.49
			c0.932,0.396,1.864,0.83,2.771,1.291c4.341,2.213,9.66,0.486,11.872-3.858c2.214-4.344,0.486-9.66-3.858-11.873
			c-1.249-0.637-2.535-1.236-3.819-1.782c-0.025-0.011-0.046-0.024-0.071-0.034c-9.242-3.921-14.553-13.27-12.913-22.736
			c0.019-0.1,0.033-0.201,0.047-0.302c3.191-17.716,9.498-34.699,18.751-50.486C134.044,49.987,192.462,17.655,256,17.655
			c13.008,0,25.971,1.346,38.534,4.001c0.101,0.025,0.204,0.049,0.306,0.071c68.208,14.534,121.479,67.555,132.557,131.935
			c0.827,4.805,5.397,8.031,10.196,7.202c4.805-0.826,8.03-5.392,7.203-10.196c-6.104-35.467-23.278-68.088-49.67-94.336
			c-26.123-25.98-59.425-43.892-96.321-51.811c-0.106-0.026-0.212-0.051-0.318-0.074C284.633,1.496,270.337,0,256,0
			C186.223,0,121.967,35.676,88.31,93.105c-10.342,17.646-17.386,36.656-20.932,56.498c-0.024,0.13-0.044,0.261-0.061,0.392
			c-1.214,7.221-0.29,14.382,2.385,20.805c-32.278,2.001-57.931,28.885-57.931,61.66c0,34.073,27.721,61.793,61.793,61.793
			c4.822,0,9.564-0.55,14.183-1.641c1.604,10.121,3.472,19.541,5.574,28.112c5.464,22.268,11.989,36.837,19.949,44.537
			c11.393,11.022,27.58,19.033,44.106,24.823c-22.329,19.502-38.553,45.289-46.28,73.961c-1.268,4.708,1.52,9.551,6.228,10.82
			c0.769,0.207,1.542,0.306,2.302,0.306c3.892,0,7.456-2.595,8.517-6.534c7.809-28.978,25.479-54.61,49.81-72.404
			c7.928,2.01,15.491,3.562,22.137,4.737v9.25c0,6.414,2.637,12.356,7.088,16.601c-3.881,7.721-2.617,17.388,3.821,23.824
			l36.073,36.073v16.453c0,4.875,3.951,8.828,8.828,8.828c4.876,0,8.828-3.952,8.828-8.828v-16.253l36.271-36.271
			c6.437-6.436,7.701-16.103,3.821-23.824c4.451-4.244,7.088-10.187,7.088-16.601v-9.183c6.664-1.175,14.248-2.731,22.202-4.75
			c24.306,17.796,41.935,43.365,49.746,72.35c1.06,3.938,4.626,6.532,8.517,6.532c0.76,0,1.534-0.099,2.302-0.306
			c4.708-1.269,7.495-6.113,6.226-10.82c-7.729-28.683-23.916-54.427-46.22-73.92c16.478-5.793,32.627-13.817,44.046-24.864
			c13.364-12.925,21.134-44.768,25.528-72.647c4.619,1.09,9.358,1.64,14.179,1.64c16.924,0,32.717-6.709,44.471-18.89
			C494.656,263.186,500.794,247.148,500.189,230.202z M217.748,410.224v-6.612c4.306,0.528,8.614,0.975,12.901,1.336
			c0.386,1.275,0.867,2.518,1.443,3.718l-5.304,5.304c-2.259,2.259-4.788,1.555-5.771,1.149
			C220.034,414.711,217.748,413.418,217.748,410.224z M247.073,461.753l-23.589-23.59c-1.149-1.148-1.149-3.014,0-4.162
			c0.277-0.277,0.523-0.571,0.754-0.873c5.548-0.286,10.922-2.565,15.034-6.676l5.326-5.326c0.807,0.386,1.631,0.729,2.474,1.03
			V461.753z M288.515,438.164l-23.786,23.786v-39.724c0.911-0.318,1.801-0.685,2.671-1.1l5.327,5.327
			c4.082,4.082,9.404,6.357,14.909,6.67l0.879,0.879C289.662,435.149,289.662,437.016,288.515,438.164z M294.252,410.223
			c0,3.194-2.286,4.487-3.27,4.894c-0.983,0.407-3.511,1.111-5.771-1.149l-5.304-5.304c0.567-1.186,1.045-2.414,1.429-3.675
			c4.291-0.355,8.605-0.797,12.915-1.323V410.223z"/>
	</g>
</g>
<g>
	<g>
		<path d="M290.721,273.655c-9.735,0-17.655-7.92-17.655-17.655c0-4.875-3.951-8.828-8.828-8.828c-3.765,0-6.97,2.361-8.239,5.679
			c-1.269-3.318-4.474-5.679-8.239-5.679c-4.876,0-8.828,3.952-8.828,8.828c0,9.735-7.92,17.655-17.655,17.655
			c-4.876,0-8.828,3.952-8.828,8.828c0,4.875,3.951,8.828,8.828,8.828c17.29,0,31.709-12.496,34.722-28.93
			c3.013,16.433,17.432,28.93,34.722,28.93c4.876,0,8.828-3.952,8.828-8.828C299.549,277.608,295.597,273.655,290.721,273.655z"/>
	</g>
</g>
<g>
	<g>
		<path d="M368.568,480.783c-4.413-22.294-15.278-42.613-31.422-58.758c-3.449-3.447-9.038-3.449-12.483,0
			c-3.449,3.447-3.449,9.036-0.001,12.483c13.663,13.663,22.856,30.849,26.586,49.701c0.832,4.204,4.521,7.116,8.651,7.116
			c0.567,0,1.145-0.055,1.723-0.169C366.404,490.21,369.514,485.565,368.568,480.783z"/>
	</g>
</g>
<g>
	<g>
		<path d="M187.336,422.026c-3.446-3.449-9.036-3.447-12.485,0c-16.144,16.145-27.009,36.463-31.42,58.758
			c-0.946,4.782,2.163,9.427,6.945,10.373c0.579,0.114,1.155,0.169,1.723,0.169c4.129,0,7.819-2.912,8.651-7.116
			c3.73-18.851,12.922-36.038,26.586-49.701C190.785,431.062,190.785,425.472,187.336,422.026z"/>
	</g>
</g>
<g>
</g>
<g>
</g>
<g>
</g>
<g>
</g>
<g>
</g>
<g>
</g>
<g>
</g>
<g>
</g>
<g>
</g>
<g>
</g>
<g>
</g>
<g>
</g>
<g>
</g>
<g>
</g>
<g>
</g>
</svg>
