<?xml version="1.0" encoding="iso-8859-1"?>
<!-- Generator: Adobe Illustrator 19.0.0, SVG Export Plug-In . SVG Version: 6.00 Build 0)  -->
<svg version="1.1" id="Layer_1" xmlns="http://www.w3.org/2000/svg" xmlns:xlink="http://www.w3.org/1999/xlink" x="0px" y="0px"
	 viewBox="0 0 511.999 511.999" style="enable-background:new 0 0 511.999 511.999;" xml:space="preserve">
<g>
	<g>
		<circle cx="194.313" cy="223.651" r="18.506"/>
	</g>
</g>
<g>
	<g>
		<path d="M274.506,232.907c-5.11,0-9.253,4.142-9.253,9.253c0,5.103-4.15,9.253-9.253,9.253s-9.253-4.15-9.253-9.253
			c0-5.111-4.143-9.253-9.253-9.253c-5.11,0-9.253,4.142-9.253,9.253c0,15.306,12.452,27.759,27.759,27.759
			s27.759-12.453,27.759-27.759C283.759,237.049,279.616,232.907,274.506,232.907z"/>
	</g>
</g>
<g>
	<g>
		<circle cx="317.687" cy="223.651" r="18.506"/>
	</g>
</g>
<g>
	<g>
		<path d="M447.229,158.883c-6.563,0-12.954,0.96-19.097,2.863c-11.716-37.208-33.099-71.555-60.917-97.588
			C334.247,33.308,295.789,17.002,256,17.002s-78.247,16.306-111.215,47.156c-27.82,26.033-49.203,60.379-60.917,97.588
			c-6.143-1.902-12.534-2.863-19.097-2.863C29.056,158.883,0,187.94,0,223.654s29.056,64.771,64.771,64.771
			c6.774,0,13.532-1.078,19.962-3.16c14.484,40.328,42.549,73.753,78.594,95.068c-28.718,21.048-49.945,51.675-59.213,86.067
			c-1.33,4.934,1.593,10.012,6.528,11.34c0.806,0.218,1.616,0.322,2.413,0.322c4.08,0,7.816-2.72,8.929-6.848
			c8.994-33.376,30.766-62.737,60.063-81.253c11.118,4.937,22.813,8.815,34.968,11.469c4.99,1.092,9.923-2.074,11.014-7.066
			c1.091-4.993-2.073-9.924-7.066-11.015c-12.373-2.702-24.219-6.805-35.375-12.123c-0.126-0.063-0.254-0.12-0.382-0.178
			c-41.054-19.698-72.628-56.014-85.923-100.794l-0.835-2.812c-0.035-0.159-0.062-0.32-0.106-0.479
			c-3.855-14.065-5.81-28.636-5.81-43.311c0-15.306-12.452-27.759-27.759-27.759s-27.759,12.453-27.759,27.759
			c0,5.111,4.143,9.253,9.253,9.253c5.11,0,9.253-4.142,9.253-9.253c0-5.103,4.15-9.253,9.253-9.253c5.103,0,9.253,4.15,9.253,9.253
			c0,14.832,1.816,29.571,5.363,43.888c-4.682,1.568-9.57,2.377-14.616,2.377c-25.511,0-46.265-20.754-46.265-46.265
			s20.754-46.265,46.265-46.265c7.354,0,14.399,1.687,20.938,5.014l10.213,5.196l2.929-11.078
			C116.922,108.163,178.14,35.509,256,35.509s139.078,72.653,157.148,141.012l2.929,11.078l10.213-5.196
			c6.539-3.327,13.583-5.014,20.938-5.014c25.511,0,46.265,20.754,46.265,46.265s-20.754,46.265-46.265,46.265
			c-5.046,0-9.934-0.809-14.616-2.377c3.547-14.316,5.363-29.056,5.363-43.888c0-5.103,4.15-9.253,9.253-9.253
			s9.253,4.15,9.253,9.253c0,5.111,4.143,9.253,9.253,9.253c5.11,0,9.253-4.142,9.253-9.253c0-15.306-12.452-27.759-27.759-27.759
			s-27.759,12.453-27.759,27.759c0,14.675-1.954,29.247-5.811,43.314c-0.043,0.159-0.07,0.32-0.106,0.479l-0.835,2.812
			c-13.294,44.775-44.862,81.087-85.909,100.786c-0.136,0.06-0.27,0.121-0.402,0.186c-11.154,5.316-22.998,9.418-35.369,12.12
			c-11.461,2.502-23.25,3.772-35.038,3.772c-5.11,0-9.253,4.142-9.253,9.253c0,5.111,4.143,9.253,9.253,9.253
			c13.113,0,26.23-1.413,38.986-4.197c12.156-2.655,23.849-6.531,34.968-11.469c29.298,18.516,51.069,47.876,60.063,81.253
			c1.113,4.129,4.849,6.848,8.929,6.848c0.797,0,1.608-0.104,2.413-0.322c4.935-1.329,7.856-6.407,6.528-11.34
			c-9.268-34.392-30.494-65.019-59.213-86.067c36.045-21.315,64.111-54.74,78.594-95.068c6.429,2.081,13.187,3.16,19.962,3.16
			c35.715,0,64.771-29.057,64.771-64.771C511.999,187.941,482.944,158.883,447.229,158.883z"/>
	</g>
</g>
<g>
	<g>
		<path d="M373.993,483.946c-4.624-23.372-16.014-44.669-32.936-61.591c-3.614-3.612-9.473-3.614-13.085,0.001
			c-3.614,3.614-3.614,9.473,0,13.085c14.32,14.319,23.957,32.334,27.866,52.097c0.872,4.406,4.739,7.458,9.067,7.458
			c0.596,0,1.2-0.058,1.806-0.178C371.724,493.827,374.985,488.959,373.993,483.946z"/>
	</g>
</g>
<g>
	<g>
		<path d="M184.028,422.357c-3.612-3.615-9.471-3.614-13.085-0.001c-16.922,16.922-28.312,38.22-32.936,61.591
			c-0.992,5.013,2.268,9.882,7.281,10.873c0.606,0.121,1.21,0.178,1.806,0.178c4.328,0,8.194-3.052,9.067-7.458
			c3.91-19.763,13.546-37.777,27.866-52.097C187.641,431.828,187.641,425.969,184.028,422.357z"/>
	</g>
</g>
<g>
	<g>
		<path d="M214.328,162.071c-13.078-4.258-26.918-4.256-40.024,0.001c-4.86,1.578-7.521,6.799-5.94,11.659
			c1.271,3.911,4.898,6.397,8.798,6.397c0.948,0,1.911-0.147,2.861-0.455c9.36-3.042,19.243-3.044,28.577-0.004
			c4.862,1.583,10.081-1.075,11.662-5.934C221.845,168.875,219.188,163.652,214.328,162.071z"/>
	</g>
</g>
<g>
	<g>
		<path d="M337.702,162.071c-13.078-4.258-26.918-4.256-40.024,0.001c-4.86,1.578-7.521,6.799-5.94,11.659
			c1.271,3.911,4.898,6.397,8.798,6.397c0.948,0,1.911-0.147,2.861-0.455c9.362-3.042,19.244-3.044,28.577-0.004
			c4.858,1.583,10.081-1.075,11.662-5.934C345.219,168.875,342.561,163.652,337.702,162.071z"/>
	</g>
</g>
<g>
</g>
<g>
</g>
<g>
</g>
<g>
</g>
<g>
</g>
<g>
</g>
<g>
</g>
<g>
</g>
<g>
</g>
<g>
</g>
<g>
</g>
<g>
</g>
<g>
</g>
<g>
</g>
<g>
</g>
</svg>
